HIERARCHY
ROOT Hips
{
	OFFSET 0.000000 0.000000 0.000000 
	CHANNELS 6 Xposition Yposition Zposition Zrotation Yrotation Xrotation
	JOINT LHipJoint
	{
		OFFSET 0.000000 0.000000 0.000000 
		CHANNELS 3 Zrotation Yrotation Xrotation
		JOINT LeftUpLeg
		{
			OFFSET 1.091560 -1.614060 0.765000 
			CHANNELS 3 Zrotation Yrotation Xrotation
			JOINT LeftLeg
			{
				OFFSET 2.337500 -6.422250 0.000000 
				CHANNELS 3 Zrotation Yrotation Xrotation
				JOINT LeftFoot
				{
					OFFSET 2.492470 -6.848000 0.000000 
					CHANNELS 3 Zrotation Yrotation Xrotation
					JOINT LeftToeBase
					{
						OFFSET 0.153120 -0.420690 1.454610 
						CHANNELS 3 Zrotation Yrotation Xrotation
						End Site
						{
							OFFSET 0.000000 -0.000000 0.770460 
						}
					}
				}
			}
		}
	}
	JOINT RHipJoint
	{
		OFFSET 0.000000 0.000000 0.000000 
		CHANNELS 3 Zrotation Yrotation Xrotation
		JOINT RightUpLeg
		{
			OFFSET -0.998830 -1.614060 0.765000 
			CHANNELS 3 Zrotation Yrotation Xrotation
			JOINT RightLeg
			{
				OFFSET -2.368770 -6.508150 0.000000 
				CHANNELS 3 Zrotation Yrotation Xrotation
				JOINT RightFoot
				{
					OFFSET -2.534520 -6.963530 0.000000 
					CHANNELS 3 Zrotation Yrotation Xrotation
					JOINT RightToeBase
					{
						OFFSET -0.131560 -0.361450 1.632370 
						CHANNELS 3 Zrotation Yrotation Xrotation
						End Site
						{
							OFFSET -0.000000 -0.000000 0.849790 
						}
					}
				}
			}
		}
	}
	JOINT LowerBack
	{
		OFFSET 0.000000 0.000000 0.000000 
		CHANNELS 3 Zrotation Yrotation Xrotation
		JOINT Spine
		{
			OFFSET -0.024310 1.982420 -0.136160 
			CHANNELS 3 Zrotation Yrotation Xrotation
			JOINT Spine1
			{
				OFFSET 0.036290 1.989740 -0.029540 
				CHANNELS 3 Zrotation Yrotation Xrotation
				JOINT Neck
				{
					OFFSET 0.000000 0.000000 0.000000 
					CHANNELS 3 Zrotation Yrotation Xrotation
					JOINT Neck1
					{
						OFFSET 0.093490 1.407830 0.223330 
						CHANNELS 3 Zrotation Yrotation Xrotation
						JOINT Head
						{
							OFFSET -0.042730 1.445000 -0.064950 
							CHANNELS 3 Zrotation Yrotation Xrotation
							End Site
							{
								OFFSET -0.022510 1.446000 -0.045440 
							}
						}
					}
				}
				JOINT LeftShoulder
				{
					OFFSET 0.000000 0.000000 0.000000 
					CHANNELS 3 Zrotation Yrotation Xrotation
					JOINT LeftArm
					{
						OFFSET 3.491370 0.851260 -0.297400 
						CHANNELS 3 Zrotation Yrotation Xrotation
						JOINT LeftForeArm
						{
							OFFSET 5.060350 -0.000000 0.000000 
							CHANNELS 3 Zrotation Yrotation Xrotation
							JOINT LeftHand
							{
								OFFSET 3.147800 -0.000000 0.000000 
								CHANNELS 3 Zrotation Yrotation Xrotation
								JOINT LeftFingerBase
								{
									OFFSET 0.000000 0.000000 0.000000 
									CHANNELS 3 Zrotation Yrotation Xrotation
									JOINT LeftHandIndex1
									{
										OFFSET 0.606750 -0.000000 0.000000 
										CHANNELS 3 Zrotation Yrotation Xrotation
										End Site
										{
											OFFSET 0.489180 -0.000000 0.000000 
										}
									}
								}
								JOINT LThumb
								{
									OFFSET 0.000000 0.000000 0.000000 
									CHANNELS 3 Zrotation Yrotation Xrotation
									End Site
									{
										OFFSET 0.496640 -0.000000 0.496640 
									}
								}
							}
						}
					}
				}
				JOINT RightShoulder
				{
					OFFSET 0.000000 0.000000 0.000000 
					CHANNELS 3 Zrotation Yrotation Xrotation
					JOINT RightArm
					{
						OFFSET -3.281010 0.697070 0.007470 
						CHANNELS 3 Zrotation Yrotation Xrotation
						JOINT RightForeArm
						{
							OFFSET -5.122730 -0.000000 -0.000000 
							CHANNELS 3 Zrotation Yrotation Xrotation
							JOINT RightHand
							{
								OFFSET -3.422000 -0.000000 0.000000 
								CHANNELS 3 Zrotation Yrotation Xrotation
								JOINT RightFingerBase
								{
									OFFSET 0.000000 0.000000 0.000000 
									CHANNELS 3 Zrotation Yrotation Xrotation
									JOINT RightHandIndex1
									{
										OFFSET -0.704600 -0.000000 0.000000 
										CHANNELS 3 Zrotation Yrotation Xrotation
										End Site
										{
											OFFSET -0.568070 -0.000000 0.000000 
										}
									}
								}
								JOINT RThumb
								{
									OFFSET 0.000000 0.000000 0.000000 
									CHANNELS 3 Zrotation Yrotation Xrotation
									End Site
									{
										OFFSET -0.576740 -0.000000 0.576740 
									}
								}
							}
						}
					}
				}
			}
		}
	}
}
MOTION
Frames: 10
Frame Time: 0.008333
0.000000 15.999992 0.000000 377.954987 93.952202 384.911011 0.000000 0.000000 0.000000 -14.878400 -7.267100 -10.533600 2.165900 9.203300 26.433500 1.216600 7.076000 -24.503700 0.160800 -2.583500 -7.121200 0.000000 0.000000 0.000000 17.346300 4.509200 -7.429300 -1.170500 -6.867400 19.323299 0.046500 -13.486700 -18.607201 -0.470400 4.398800 -12.201300 0.826700 1.836600 -5.955100 -0.582400 2.470800 -2.836600 -0.905500 1.252900 0.477600 19.806801 16.534000 4.769100 -4.087300 23.216101 9.611300 -2.911000 12.096400 4.887500 -0.000000 -0.000000 0.000000 -89.575401 -5.647900 28.361000 6.403000 -10.932600 -0.613400 -0.000000 -0.000000 7.903600 15.400500 45.711899 11.154600 -7.125000 0.000000 -0.000000 -40.662800 73.335899 -28.487301 -0.000000 -0.000000 0.000000 94.236397 -1.379100 3.559300 -9.144900 15.391000 -1.238300 0.000000 0.000000 15.723200 -25.616501 31.210501 -13.952900 7.125000 -0.000000 -0.000000 3.327000 3.866900 3.549700 
0.000000 15.999992 0.000000 381.040009 93.681900 387.484009 0.000000 0.000000 0.000000 -14.896400 -7.122000 -9.918600 2.172400 9.216300 26.474199 1.202000 7.555500 -24.718300 0.195400 -2.846800 -7.852700 0.000000 0.000000 0.000000 17.457399 4.367800 -6.879500 -1.161600 -6.842200 19.248800 0.041100 -13.335400 -18.454800 -0.526600 4.650200 -12.913600 0.669700 1.960400 -5.511500 -0.393600 2.638500 -2.724700 -0.627800 1.336200 0.334400 19.652500 16.540400 4.470100 -3.925100 23.161501 9.996900 -2.809800 12.078600 5.013800 0.000000 -0.000000 0.000000 -89.811897 -5.568400 28.360100 6.392900 -10.915800 -0.611400 -0.000000 -0.000000 7.991400 15.347200 45.694599 11.111900 -7.125000 0.000000 -0.000000 -40.673302 73.304802 -28.469801 0.000000 -0.000000 0.000000 94.025002 -1.518100 3.539800 -9.182500 15.450800 -1.248300 0.000000 0.000000 15.668300 -25.483101 31.177900 -13.860400 7.125000 -0.000000 -0.000000 3.397000 3.801300 3.621000 
0.000000 15.999992 0.000000 381.756012 93.862198 388.500000 0.000000 0.000000 0.000000 -14.644900 -7.199900 -10.298600 2.177100 9.225500 26.503401 1.233500 7.324100 -24.805401 0.171200 -2.665300 -7.348300 0.000000 0.000000 0.000000 17.649799 4.744700 -7.086300 -1.159600 -6.836600 19.232100 0.087800 -13.717100 -18.433300 -0.503700 4.549500 -12.628100 0.218700 1.944800 -5.504900 -0.100800 2.645200 -2.967600 -0.082200 1.348200 0.047500 19.629700 16.426901 4.516700 -4.050100 23.039301 10.141200 -2.854700 12.022300 5.051400 -0.000000 -0.000000 0.000000 -90.199203 -5.372500 28.524599 6.384700 -10.902200 -0.609900 -0.000000 -0.000000 8.076600 15.500200 45.701000 11.226400 -7.125000 0.000000 -0.000000 -40.533298 73.364899 -28.412701 -0.000000 -0.000000 0.000000 93.680603 -1.808800 3.525800 -9.237700 15.538400 -1.263000 0.000000 0.000000 15.443400 -25.597200 31.052299 -13.880200 7.125000 -0.000000 -0.000000 3.311200 3.698100 3.523700 
0.000000 15.999992 0.000000 380.020996 94.586800 386.587006 0.000000 0.000000 0.000000 -14.443100 -7.828700 -10.063500 2.189800 9.250600 26.582500 1.245000 7.139200 -24.769699 0.102300 -2.062400 -5.678100 0.000000 0.000000 0.000000 17.925400 4.693200 -6.808800 -1.162300 -6.844200 19.254700 0.160500 -14.396000 -18.559000 -0.474200 4.416300 -12.251000 0.765300 1.667300 -5.265100 -0.248800 2.247200 -2.837800 -0.566100 1.140300 0.072700 19.575701 16.548000 4.486900 -3.980300 23.172899 9.895200 -2.823300 12.076100 4.977900 0.000000 -0.000000 0.000000 -89.886398 -5.573700 28.519600 6.385600 -10.903700 -0.610100 -0.000000 -0.000000 7.938200 15.681900 45.526699 11.328300 -7.125000 0.000000 -0.000000 -39.904999 73.311302 -27.893499 0.000000 -0.000000 0.000000 93.993797 -1.483800 3.221800 -9.148400 15.396600 -1.239200 0.000000 0.000000 15.965200 -25.757000 30.944099 -13.933600 7.125000 -0.000000 -0.000000 3.202500 3.623800 3.403700 
0.000000 15.999992 0.000000 381.751007 93.663597 388.075012 0.000000 0.000000 0.000000 -14.928100 -7.837000 -9.471500 2.193800 9.258500 26.607401 1.186200 8.090700 -24.974501 0.101000 -2.048900 -5.640900 0.000000 0.000000 0.000000 17.527599 4.484800 -6.728800 -1.166300 -6.855500 19.287901 0.056700 -13.502400 -18.504499 -0.513900 4.594900 -12.756700 0.266200 2.021100 -5.187000 -0.140900 2.738900 -2.811000 -0.153400 1.391300 0.036200 19.582100 16.455099 4.513400 -4.188900 23.075100 9.920700 -2.895200 12.024300 4.996500 0.000000 -0.000000 0.000000 -90.263702 -5.454600 28.258301 6.331500 -10.813900 -0.599900 -0.000000 -0.000000 8.474900 15.697500 45.313499 11.299400 -7.125000 0.000000 -0.000000 -39.356499 73.168503 -27.365999 0.000000 -0.000000 0.000000 93.703499 -1.687000 3.012400 -9.163300 15.420200 -1.243200 0.000000 0.000000 15.928200 -25.556999 31.002199 -13.836800 7.125000 -0.000000 -0.000000 3.325700 3.636600 3.535800 
0.000000 15.999992 0.000000 384.102997 93.198898 390.308014 0.000000 0.000000 0.000000 -15.208400 -8.017100 -9.047200 2.202100 9.275000 26.659401 1.154800 8.765200 -25.228500 0.090100 -1.935800 -5.328400 0.000000 0.000000 0.000000 17.294201 4.115500 -6.781600 -1.176000 -6.883000 19.369301 -0.065100 -12.560700 -18.672501 -0.494400 4.508000 -12.510600 0.603000 2.157400 -5.560200 -0.311300 2.900500 -2.639000 -0.486900 1.467600 0.446200 19.497499 16.549601 4.453000 -3.962800 23.164000 9.893100 -2.808900 12.069000 4.970500 0.000000 -0.000000 0.000000 -90.085197 -5.507200 28.197901 6.358000 -10.857900 -0.604900 -0.000000 -0.000000 8.334400 15.654800 45.408401 11.285900 -7.125000 0.000000 -0.000000 -39.636299 73.219200 -27.617001 0.000000 -0.000000 0.000000 93.865700 -1.592400 2.947700 -9.131300 15.369500 -1.234700 0.000000 0.000000 16.183001 -25.426800 31.211500 -13.839600 7.125000 -0.000000 -0.000000 3.434600 3.822800 3.662300 
0.000000 15.999992 0.000000 387.269989 92.924004 393.298004 0.000000 0.000000 0.000000 -15.208100 -7.734100 -8.890200 2.208500 9.287500 26.698999 1.169400 8.781000 -25.353500 0.088800 -1.921900 -5.290000 0.000000 0.000000 0.000000 17.314800 4.180200 -6.622800 -1.178000 -6.888700 19.386101 -0.104800 -12.212000 -18.686899 -0.461400 4.357000 -12.083200 0.396900 2.287100 -5.287100 -0.207400 3.083300 -2.683800 -0.268400 1.560700 0.234500 19.577101 16.485701 4.493500 -3.958000 23.098900 10.068700 -2.818100 12.048800 5.021600 -0.000000 -0.000000 0.000000 -90.189003 -5.322600 28.511000 6.390600 -10.912100 -0.611000 -0.000000 -0.000000 8.167500 15.774800 45.549301 11.401400 -7.125000 0.000000 -0.000000 -39.865799 73.360802 -27.903799 -0.000000 -0.000000 0.000000 93.778000 -1.771500 2.744100 -9.144300 15.390100 -1.238100 0.000000 0.000000 16.306801 -25.477800 31.294399 -13.902000 7.125000 -0.000000 -0.000000 3.419600 3.920900 3.651800 
0.000000 15.999992 0.000000 389.350006 92.703499 395.244995 0.000000 0.000000 0.000000 -15.365100 -8.065900 -8.516000 2.211600 9.293500 26.717800 1.125300 9.408700 -25.494801 0.065000 -1.645100 -4.525900 0.000000 0.000000 0.000000 17.233000 4.006700 -6.563800 -1.173100 -6.874700 19.344601 -0.103000 -12.074000 -18.485100 -0.534800 4.685700 -13.014300 0.611100 2.329500 -5.385100 -0.317900 3.126000 -2.535800 -0.489600 1.578700 0.458800 19.600700 16.530800 4.417000 -4.014400 23.145000 10.016600 -2.825700 12.065500 5.031200 -0.000000 -0.000000 0.000000 -90.034897 -5.450800 28.526600 6.404700 -10.935500 -0.613700 -0.000000 -0.000000 8.027400 15.890100 45.639301 11.504100 -7.125000 0.000000 -0.000000 -39.975300 73.465202 -28.070601 -0.000000 -0.000000 0.000000 93.932701 -1.629100 2.790500 -9.120400 15.352200 -1.231800 0.000000 0.000000 16.487400 -25.622601 31.242100 -13.968800 7.125000 -0.000000 -0.000000 3.328900 3.901200 3.553500 
0.000000 15.999992 0.000000 382.053009 93.636703 388.294006 0.000000 0.000000 0.000000 -14.920100 -7.628600 -9.498600 2.211600 9.293700 26.718300 1.202800 7.917200 -24.980400 0.092000 -1.956200 -5.384700 0.000000 0.000000 0.000000 17.510799 4.345400 -6.770800 -1.166700 -6.856700 19.291401 0.115400 -13.760900 -18.148500 -0.654100 5.173200 -14.403300 0.124300 2.033200 -5.096700 -0.080600 2.761300 -2.834000 -0.015600 1.404500 -0.047100 19.870100 16.345501 4.625200 -4.648200 22.989201 9.715600 -3.082400 11.971800 4.990800 -0.000000 -0.000000 0.000000 -90.355301 -5.364200 28.425600 6.369500 -10.877000 -0.607000 -0.000000 -0.000000 8.386200 15.916400 45.686199 11.532500 -7.125000 0.000000 -0.000000 -40.067902 73.507202 -28.174700 -0.000000 -0.000000 0.000000 93.680099 -1.835200 2.757900 -9.146000 15.392800 -1.238600 0.000000 0.000000 16.275801 -25.759501 31.139500 -14.011200 7.125000 -0.000000 -0.000000 3.234000 3.827400 3.448000 
0.000000 15.999992 0.000000 376.511993 94.634201 382.910004 0.000000 0.000000 0.000000 -14.599600 -6.902600 -10.351700 2.204300 9.279200 26.672701 1.300300 6.099100 -24.527300 0.148200 -2.480700 -6.836200 0.000000 0.000000 0.000000 17.717300 4.713700 -6.620400 -1.166700 -6.856600 19.291300 0.175900 -14.616900 -18.712099 -0.461100 4.355700 -12.079600 0.242300 1.578000 -4.851000 -0.253200 2.151500 -2.878500 -0.297100 1.096800 -0.219400 19.590000 16.583599 4.414400 -3.999000 23.199200 9.781300 -2.825400 12.082000 4.959500 0.000000 -0.000000 0.000000 -89.952599 -5.570000 28.410601 6.377900 -10.890900 -0.608600 -0.000000 -0.000000 8.087200 15.940100 45.952900 11.601100 -7.125000 0.000000 -0.000000 -40.734600 73.698196 -28.837700 0.000000 -0.000000 0.000000 94.006203 -1.567600 2.820700 -9.088400 15.301200 -1.223300 0.000000 0.000000 16.545601 -25.657499 31.103800 -13.936200 7.125000 -0.000000 -0.000000 3.285800 3.766000 3.500100 
